<svg width="29" height="12" viewBox="0 0 29 12" fill="none" xmlns="http://www.w3.org/2000/svg">
<path id="Vector" fill-rule="evenodd" clip-rule="evenodd" d="M15.7588 1.69366L13.8009 2.12158V0.504665L15.7588 0.0845947V1.69366ZM7.80288 1.00381L5.89949 1.41604L5.8918 7.76483C5.8918 8.93812 6.75732 9.80182 7.91189 9.80182C8.55167 9.80182 9.01967 9.68291 9.27679 9.54046V7.9314C9.02738 8.03403 7.79515 8.39915 7.79515 7.22585V4.41209H9.27679V2.72393H7.79515L7.80288 1.00381ZM28.6364 6.21913C28.6364 4.18998 27.669 2.58934 25.8207 2.58934C23.9641 2.58934 22.841 4.18999 22.841 6.20343C22.841 8.58927 24.1668 9.79396 26.0701 9.79396C26.9984 9.79396 27.7004 9.57973 28.2306 9.27855V7.69359C27.7004 7.9628 27.092 8.12937 26.3195 8.12937C25.563 8.12937 24.8924 7.86016 24.8066 6.92467H28.621C28.621 6.88092 28.6237 6.78166 28.627 6.66725C28.6314 6.5119 28.6364 6.32905 28.6364 6.21913ZM24.7834 5.46647C24.7834 4.57079 25.3213 4.1984 25.813 4.1984C26.2887 4.1984 26.7958 4.57079 26.7958 5.46647H24.7834ZM3.19285 4.30888C2.77991 4.30888 2.52992 4.42778 2.52992 4.73737C2.52992 5.07444 2.95937 5.22306 3.49234 5.40702C4.36116 5.70764 5.50472 6.10304 5.50968 7.56685C5.50968 8.98523 4.39421 9.80182 2.77164 9.80182C2.10103 9.80182 1.36765 9.66721 0.642535 9.34977V7.46364C1.29773 7.82819 2.12471 8.09797 2.77164 8.09797C3.20881 8.09797 3.52043 7.97907 3.52043 7.61452C3.52043 7.24043 3.05521 7.06938 2.49306 6.86298C1.6369 6.54891 0.556641 6.15295 0.556641 4.83216C0.556641 3.42948 1.60992 2.58934 3.19285 2.58934C3.84034 2.58934 4.4801 2.69253 5.12759 2.95388V4.81645C4.53461 4.49116 3.78583 4.30888 3.19285 4.30888ZM11.7027 3.31057L11.5782 2.72393H9.89344V9.65936H11.8431V4.9589C12.3034 4.3487 13.0835 4.45975 13.3252 4.54669V2.72393C13.0758 2.62859 12.163 2.45472 11.7027 3.31057ZM13.8009 2.72393H15.7588V9.65936H13.8009V2.72393ZM18.3014 3.20738C18.5745 2.95388 19.0656 2.58934 19.8304 2.58934C21.1953 2.58934 22.482 3.8417 22.4902 6.14005C22.4902 8.65265 21.2184 9.79396 19.8221 9.79396C19.1361 9.79396 18.7226 9.50064 18.4418 9.29481L18.4341 11.5376L16.4839 11.9577V2.71608H18.2001L18.3014 3.20738ZM18.4418 7.6779C18.629 7.88373 18.9021 8.0503 19.3624 8.0503C20.0798 8.0503 20.5632 7.25782 20.5632 6.19558C20.5632 5.15745 20.0721 4.34871 19.3624 4.34871C18.9175 4.34871 18.6367 4.50742 18.4341 4.73737L18.4418 7.6779Z" fill="#6461FC"/>
</svg>
